<svg xmlns="http://www.w3.org/2000/svg" xmlns:xlink="http://www.w3.org/1999/xlink" width="403" zoomAndPan="magnify" viewBox="0 0 302.25 263.99999" height="352" preserveAspectRatio="xMidYMid meet" version="1.0"><defs><g/><clipPath id="901ce41289"><path d="M 8.378906 0.328125 L 287.4375 0.328125 L 287.4375 262.925781 L 8.378906 262.925781 Z M 8.378906 0.328125 " clip-rule="nonzero"/></clipPath><clipPath id="7885023bf0"><path d="M 27.832031 0.328125 L 267.703125 0.328125 C 278.449219 0.328125 287.15625 9.035156 287.15625 19.78125 L 287.15625 243.765625 C 287.15625 254.507812 278.449219 263.214844 267.703125 263.214844 L 27.832031 263.214844 C 17.085938 263.214844 8.378906 254.507812 8.378906 243.765625 L 8.378906 19.78125 C 8.378906 9.035156 17.085938 0.328125 27.832031 0.328125 Z M 27.832031 0.328125 " clip-rule="nonzero"/></clipPath><clipPath id="a3ed9c9392"><path d="M 91.390625 13.746094 L 197 13.746094 L 197 179.835938 L 91.390625 179.835938 Z M 91.390625 13.746094 " clip-rule="nonzero"/></clipPath></defs><g clip-path="url(#901ce41289)"><g clip-path="url(#7885023bf0)"><path stroke-linecap="butt" transform="matrix(0.748144, 0, 0, 0.748144, 8.3792, 0.326727)" fill="none" stroke-linejoin="miter" d="M 26.001469 0.00186806 L 346.623226 0.00186806 C 360.986905 0.00186806 372.625088 11.640051 372.625088 26.00373 L 372.625088 325.390633 C 372.625088 339.749091 360.986905 351.387274 346.623226 351.387274 L 26.001469 351.387274 C 11.63779 351.387274 -0.000392839 339.749091 -0.000392839 325.390633 L -0.000392839 26.00373 C -0.000392839 11.640051 11.63779 0.00186806 26.001469 0.00186806 Z M 26.001469 0.00186806 " stroke="#243763" stroke-width="8" stroke-opacity="1" stroke-miterlimit="4"/></g></g><g fill="#243763" fill-opacity="1"><g transform="translate(105.930103, 229.228694)"><g><path d="M 15.109375 -19.765625 C 15.035156 -19.117188 14.984375 -18.488281 14.953125 -17.875 C 14.921875 -17.257812 14.90625 -16.789062 14.90625 -16.46875 C 14.90625 -16.132812 14.914062 -15.8125 14.9375 -15.5 C 14.957031 -15.195312 14.976562 -14.945312 15 -14.75 L 14.359375 -14.75 C 14.242188 -15.84375 14.082031 -16.707031 13.875 -17.34375 C 13.664062 -17.988281 13.316406 -18.445312 12.828125 -18.71875 C 12.335938 -18.988281 11.597656 -19.125 10.609375 -19.125 L 8.296875 -19.125 C 7.660156 -19.125 7.175781 -19.070312 6.84375 -18.96875 C 6.519531 -18.863281 6.300781 -18.648438 6.1875 -18.328125 C 6.082031 -18.003906 6.03125 -17.5 6.03125 -16.8125 L 6.03125 -2.953125 C 6.03125 -2.285156 6.082031 -1.785156 6.1875 -1.453125 C 6.300781 -1.117188 6.519531 -0.898438 6.84375 -0.796875 C 7.175781 -0.691406 7.660156 -0.640625 8.296875 -0.640625 L 10.328125 -0.640625 C 11.503906 -0.640625 12.394531 -0.796875 13 -1.109375 C 13.601562 -1.429688 14.039062 -1.945312 14.3125 -2.65625 C 14.582031 -3.375 14.78125 -4.347656 14.90625 -5.578125 L 15.546875 -5.578125 C 15.492188 -5.078125 15.46875 -4.410156 15.46875 -3.578125 C 15.46875 -3.222656 15.476562 -2.710938 15.5 -2.046875 C 15.53125 -1.390625 15.585938 -0.707031 15.671875 0 C 14.710938 -0.0390625 13.640625 -0.0625 12.453125 -0.0625 C 11.265625 -0.0703125 10.203125 -0.078125 9.265625 -0.078125 C 8.859375 -0.078125 8.332031 -0.078125 7.6875 -0.078125 C 7.050781 -0.078125 6.359375 -0.0703125 5.609375 -0.0625 C 4.867188 -0.0625 4.113281 -0.0546875 3.34375 -0.046875 C 2.582031 -0.0351562 1.859375 -0.0195312 1.171875 0 L 1.171875 -0.5625 C 1.804688 -0.59375 2.285156 -0.664062 2.609375 -0.78125 C 2.929688 -0.894531 3.148438 -1.117188 3.265625 -1.453125 C 3.378906 -1.785156 3.4375 -2.285156 3.4375 -2.953125 L 3.4375 -16.8125 C 3.4375 -17.5 3.378906 -18.003906 3.265625 -18.328125 C 3.148438 -18.648438 2.929688 -18.875 2.609375 -19 C 2.285156 -19.125 1.804688 -19.191406 1.171875 -19.203125 L 1.171875 -19.765625 C 1.859375 -19.742188 2.582031 -19.726562 3.34375 -19.71875 C 4.113281 -19.71875 4.867188 -19.710938 5.609375 -19.703125 C 6.359375 -19.691406 7.050781 -19.6875 7.6875 -19.6875 C 8.332031 -19.6875 8.859375 -19.6875 9.265625 -19.6875 C 10.117188 -19.6875 11.09375 -19.691406 12.1875 -19.703125 C 13.28125 -19.710938 14.253906 -19.734375 15.109375 -19.765625 Z M 10.296875 -10.21875 C 10.296875 -10.21875 10.296875 -10.125 10.296875 -9.9375 C 10.296875 -9.75 10.296875 -9.65625 10.296875 -9.65625 L 5.1875 -9.65625 C 5.1875 -9.65625 5.1875 -9.75 5.1875 -9.9375 C 5.1875 -10.125 5.1875 -10.21875 5.1875 -10.21875 Z M 11.109375 -13.90625 C 11.035156 -12.84375 11.003906 -12.03125 11.015625 -11.46875 C 11.023438 -10.914062 11.03125 -10.40625 11.03125 -9.9375 C 11.03125 -9.46875 11.035156 -8.953125 11.046875 -8.390625 C 11.066406 -7.835938 11.117188 -7.03125 11.203125 -5.96875 L 10.546875 -5.96875 C 10.472656 -6.570312 10.382812 -7.15625 10.28125 -7.71875 C 10.1875 -8.289062 9.96875 -8.753906 9.625 -9.109375 C 9.28125 -9.472656 8.695312 -9.65625 7.875 -9.65625 L 7.875 -10.21875 C 8.488281 -10.21875 8.957031 -10.34375 9.28125 -10.59375 C 9.601562 -10.84375 9.835938 -11.160156 9.984375 -11.546875 C 10.140625 -11.941406 10.242188 -12.347656 10.296875 -12.765625 C 10.359375 -13.191406 10.414062 -13.570312 10.46875 -13.90625 Z M 11.109375 -13.90625 "/></g></g></g><g fill="#243763" fill-opacity="1"><g transform="translate(122.937571, 229.228694)"><g><path d="M 5.25 -21.890625 L 5.25 -2.59375 C 5.25 -1.8125 5.410156 -1.28125 5.734375 -1 C 6.066406 -0.726562 6.613281 -0.59375 7.375 -0.59375 L 7.375 0 C 7.050781 -0.0195312 6.566406 -0.0390625 5.921875 -0.0625 C 5.285156 -0.09375 4.644531 -0.109375 4 -0.109375 C 3.363281 -0.109375 2.71875 -0.09375 2.0625 -0.0625 C 1.414062 -0.0390625 0.929688 -0.0195312 0.609375 0 L 0.609375 -0.59375 C 1.378906 -0.59375 1.925781 -0.726562 2.25 -1 C 2.570312 -1.28125 2.734375 -1.8125 2.734375 -2.59375 L 2.734375 -18.546875 C 2.734375 -19.378906 2.582031 -19.992188 2.28125 -20.390625 C 1.988281 -20.796875 1.429688 -21 0.609375 -21 L 0.609375 -21.578125 C 1.203125 -21.523438 1.78125 -21.5 2.34375 -21.5 C 2.882812 -21.5 3.398438 -21.53125 3.890625 -21.59375 C 4.390625 -21.664062 4.84375 -21.765625 5.25 -21.890625 Z M 5.25 -21.890625 "/></g></g></g><g fill="#243763" fill-opacity="1"><g transform="translate(130.64537, 229.228694)"><g><path d="M 13.515625 -21.890625 L 13.515625 -3.046875 C 13.515625 -2.203125 13.664062 -1.582031 13.96875 -1.1875 C 14.28125 -0.789062 14.835938 -0.59375 15.640625 -0.59375 L 15.640625 0 C 15.054688 -0.0507812 14.476562 -0.078125 13.90625 -0.078125 C 13.363281 -0.078125 12.84375 -0.0507812 12.34375 0 C 11.851562 0.0507812 11.40625 0.15625 11 0.3125 L 11 -18.546875 C 11 -19.378906 10.847656 -19.992188 10.546875 -20.390625 C 10.253906 -20.796875 9.695312 -21 8.875 -21 L 8.875 -21.578125 C 9.46875 -21.523438 10.046875 -21.5 10.609375 -21.5 C 11.148438 -21.5 11.664062 -21.53125 12.15625 -21.59375 C 12.65625 -21.664062 13.109375 -21.765625 13.515625 -21.890625 Z M 7.65625 -14.765625 C 8.46875 -14.765625 9.234375 -14.566406 9.953125 -14.171875 C 10.671875 -13.785156 11.148438 -13.117188 11.390625 -12.171875 L 11.03125 -11.890625 C 10.769531 -12.671875 10.363281 -13.238281 9.8125 -13.59375 C 9.257812 -13.945312 8.613281 -14.125 7.875 -14.125 C 6.78125 -14.125 5.863281 -13.554688 5.125 -12.421875 C 4.382812 -11.285156 4.023438 -9.535156 4.046875 -7.171875 C 4.046875 -5.671875 4.191406 -4.421875 4.484375 -3.421875 C 4.773438 -2.421875 5.203125 -1.675781 5.765625 -1.1875 C 6.335938 -0.695312 7.03125 -0.453125 7.84375 -0.453125 C 8.625 -0.453125 9.332031 -0.785156 9.96875 -1.453125 C 10.601562 -2.117188 10.984375 -3.101562 11.109375 -4.40625 L 11.453125 -4.015625 C 11.296875 -2.609375 10.84375 -1.519531 10.09375 -0.75 C 9.34375 0.0078125 8.320312 0.390625 7.03125 0.390625 C 5.882812 0.390625 4.875 0.113281 4 -0.4375 C 3.132812 -1 2.472656 -1.835938 2.015625 -2.953125 C 1.566406 -4.078125 1.34375 -5.484375 1.34375 -7.171875 C 1.34375 -8.867188 1.632812 -10.28125 2.21875 -11.40625 C 2.800781 -12.53125 3.570312 -13.367188 4.53125 -13.921875 C 5.488281 -14.484375 6.53125 -14.765625 7.65625 -14.765625 Z M 7.65625 -14.765625 "/></g></g></g><g fill="#243763" fill-opacity="1"><g transform="translate(146.870893, 229.228694)"><g><path d="M 7.59375 -14.765625 C 9.226562 -14.765625 10.503906 -14.265625 11.421875 -13.265625 C 12.347656 -12.273438 12.8125 -10.726562 12.8125 -8.625 L 2.953125 -8.625 L 2.9375 -9.15625 L 10.140625 -9.15625 C 10.171875 -10.070312 10.09375 -10.914062 9.90625 -11.6875 C 9.726562 -12.457031 9.4375 -13.070312 9.03125 -13.53125 C 8.632812 -14 8.117188 -14.234375 7.484375 -14.234375 C 6.628906 -14.234375 5.867188 -13.804688 5.203125 -12.953125 C 4.546875 -12.097656 4.148438 -10.738281 4.015625 -8.875 L 4.109375 -8.765625 C 4.066406 -8.484375 4.035156 -8.175781 4.015625 -7.84375 C 4.003906 -7.507812 4 -7.175781 4 -6.84375 C 4 -5.570312 4.203125 -4.476562 4.609375 -3.5625 C 5.015625 -2.65625 5.546875 -1.960938 6.203125 -1.484375 C 6.867188 -1.015625 7.554688 -0.78125 8.265625 -0.78125 C 8.828125 -0.78125 9.359375 -0.867188 9.859375 -1.046875 C 10.359375 -1.222656 10.820312 -1.515625 11.25 -1.921875 C 11.675781 -2.335938 12.050781 -2.890625 12.375 -3.578125 L 12.921875 -3.34375 C 12.722656 -2.726562 12.390625 -2.132812 11.921875 -1.5625 C 11.453125 -0.988281 10.863281 -0.519531 10.15625 -0.15625 C 9.457031 0.207031 8.640625 0.390625 7.703125 0.390625 C 6.367188 0.390625 5.21875 0.0820312 4.25 -0.53125 C 3.289062 -1.144531 2.554688 -1.992188 2.046875 -3.078125 C 1.535156 -4.171875 1.28125 -5.425781 1.28125 -6.84375 C 1.28125 -8.476562 1.539062 -9.882812 2.0625 -11.0625 C 2.582031 -12.25 3.316406 -13.160156 4.265625 -13.796875 C 5.222656 -14.441406 6.332031 -14.765625 7.59375 -14.765625 Z M 7.59375 -14.765625 "/></g></g></g><g fill="#243763" fill-opacity="1"><g transform="translate(161.001897, 229.228694)"><g><path d="M 9.5 -14.765625 C 10 -14.765625 10.4375 -14.660156 10.8125 -14.453125 C 11.195312 -14.253906 11.492188 -13.988281 11.703125 -13.65625 C 11.921875 -13.332031 12.03125 -12.96875 12.03125 -12.5625 C 12.03125 -12.09375 11.882812 -11.679688 11.59375 -11.328125 C 11.3125 -10.984375 10.925781 -10.8125 10.4375 -10.8125 C 10.050781 -10.8125 9.707031 -10.9375 9.40625 -11.1875 C 9.113281 -11.4375 8.96875 -11.789062 8.96875 -12.25 C 8.96875 -12.601562 9.0625 -12.90625 9.25 -13.15625 C 9.445312 -13.414062 9.664062 -13.617188 9.90625 -13.765625 C 9.78125 -13.953125 9.585938 -14.046875 9.328125 -14.046875 C 8.742188 -14.046875 8.210938 -13.875 7.734375 -13.53125 C 7.253906 -13.1875 6.84375 -12.742188 6.5 -12.203125 C 6.164062 -11.660156 5.90625 -11.085938 5.71875 -10.484375 C 5.53125 -9.878906 5.4375 -9.316406 5.4375 -8.796875 L 5.4375 -2.875 C 5.4375 -1.957031 5.703125 -1.347656 6.234375 -1.046875 C 6.765625 -0.742188 7.488281 -0.59375 8.40625 -0.59375 L 8.40625 0 C 7.976562 -0.0195312 7.375 -0.0390625 6.59375 -0.0625 C 5.8125 -0.09375 4.984375 -0.109375 4.109375 -0.109375 C 3.472656 -0.109375 2.84375 -0.09375 2.21875 -0.0625 C 1.59375 -0.0390625 1.125 -0.0195312 0.8125 0 L 0.8125 -0.59375 C 1.570312 -0.59375 2.113281 -0.726562 2.4375 -1 C 2.769531 -1.28125 2.9375 -1.8125 2.9375 -2.59375 L 2.9375 -11.34375 C 2.9375 -12.175781 2.785156 -12.789062 2.484375 -13.1875 C 2.179688 -13.59375 1.625 -13.796875 0.8125 -13.796875 L 0.8125 -14.375 C 1.40625 -14.320312 1.984375 -14.296875 2.546875 -14.296875 C 3.078125 -14.296875 3.585938 -14.328125 4.078125 -14.390625 C 4.578125 -14.453125 5.03125 -14.550781 5.4375 -14.6875 L 5.4375 -11.203125 C 5.644531 -11.734375 5.9375 -12.273438 6.3125 -12.828125 C 6.695312 -13.378906 7.160156 -13.835938 7.703125 -14.203125 C 8.242188 -14.578125 8.84375 -14.765625 9.5 -14.765625 Z M 9.5 -14.765625 "/></g></g></g><g fill="#243763" fill-opacity="1"><g transform="translate(172.870798, 229.228694)"><g><path d="M 5.25 -21.890625 L 5.25 -2.59375 C 5.25 -1.8125 5.410156 -1.28125 5.734375 -1 C 6.066406 -0.726562 6.613281 -0.59375 7.375 -0.59375 L 7.375 0 C 7.050781 -0.0195312 6.566406 -0.0390625 5.921875 -0.0625 C 5.285156 -0.09375 4.644531 -0.109375 4 -0.109375 C 3.363281 -0.109375 2.71875 -0.09375 2.0625 -0.0625 C 1.414062 -0.0390625 0.929688 -0.0195312 0.609375 0 L 0.609375 -0.59375 C 1.378906 -0.59375 1.925781 -0.726562 2.25 -1 C 2.570312 -1.28125 2.734375 -1.8125 2.734375 -2.59375 L 2.734375 -18.546875 C 2.734375 -19.378906 2.582031 -19.992188 2.28125 -20.390625 C 1.988281 -20.796875 1.429688 -21 0.609375 -21 L 0.609375 -21.578125 C 1.203125 -21.523438 1.78125 -21.5 2.34375 -21.5 C 2.882812 -21.5 3.398438 -21.53125 3.890625 -21.59375 C 4.390625 -21.664062 4.84375 -21.765625 5.25 -21.890625 Z M 5.25 -21.890625 "/></g></g></g><g fill="#243763" fill-opacity="1"><g transform="translate(180.857884, 229.228694)"><g><path d="M 13.796875 -14.375 L 13.796875 -13.828125 C 13.441406 -13.785156 13.113281 -13.625 12.8125 -13.34375 C 12.519531 -13.0625 12.242188 -12.566406 11.984375 -11.859375 L 7.40625 0.140625 L 6.921875 0.140625 L 1.78125 -12.234375 C 1.425781 -12.953125 1.078125 -13.390625 0.734375 -13.546875 C 0.390625 -13.710938 0.109375 -13.796875 -0.109375 -13.796875 L -0.109375 -14.375 C 0.296875 -14.320312 0.722656 -14.28125 1.171875 -14.25 C 1.617188 -14.226562 2.101562 -14.21875 2.625 -14.21875 C 3.195312 -14.21875 3.804688 -14.234375 4.453125 -14.265625 C 5.097656 -14.304688 5.695312 -14.34375 6.25 -14.375 L 6.25 -13.796875 C 5.789062 -13.796875 5.378906 -13.757812 5.015625 -13.6875 C 4.648438 -13.625 4.421875 -13.429688 4.328125 -13.109375 C 4.234375 -12.785156 4.34375 -12.234375 4.65625 -11.453125 L 8.09375 -2.9375 L 7.9375 -2.875 L 11.109375 -11.203125 C 11.347656 -11.816406 11.445312 -12.300781 11.40625 -12.65625 C 11.363281 -13.019531 11.171875 -13.296875 10.828125 -13.484375 C 10.492188 -13.671875 9.992188 -13.785156 9.328125 -13.828125 L 9.328125 -14.375 C 9.660156 -14.363281 9.945312 -14.351562 10.1875 -14.34375 C 10.425781 -14.332031 10.660156 -14.320312 10.890625 -14.3125 C 11.128906 -14.300781 11.390625 -14.296875 11.671875 -14.296875 C 12.097656 -14.296875 12.484375 -14.304688 12.828125 -14.328125 C 13.171875 -14.347656 13.492188 -14.363281 13.796875 -14.375 Z M 7.40625 0.140625 L 6.453125 2.5625 C 6.265625 3.03125 6.070312 3.421875 5.875 3.734375 C 5.675781 4.054688 5.46875 4.316406 5.25 4.515625 C 4.945312 4.796875 4.59375 4.988281 4.1875 5.09375 C 3.78125 5.195312 3.410156 5.25 3.078125 5.25 C 2.722656 5.25 2.398438 5.179688 2.109375 5.046875 C 1.816406 4.921875 1.585938 4.734375 1.421875 4.484375 C 1.253906 4.234375 1.171875 3.929688 1.171875 3.578125 C 1.171875 3.128906 1.300781 2.769531 1.5625 2.5 C 1.820312 2.226562 2.1875 2.09375 2.65625 2.09375 C 3.039062 2.09375 3.375 2.203125 3.65625 2.421875 C 3.9375 2.648438 4.078125 2.976562 4.078125 3.40625 C 4.078125 3.71875 4 3.976562 3.84375 4.1875 C 3.695312 4.394531 3.523438 4.550781 3.328125 4.65625 C 3.359375 4.675781 3.390625 4.6875 3.421875 4.6875 C 3.453125 4.6875 3.472656 4.6875 3.484375 4.6875 C 3.992188 4.6875 4.441406 4.515625 4.828125 4.171875 C 5.222656 3.828125 5.566406 3.273438 5.859375 2.515625 L 6.875 -0.078125 Z M 7.40625 0.140625 "/></g></g></g><g clip-path="url(#a3ed9c9392)"><path fill="#243763" d="M 151.492188 176.691406 C 154.242188 179.675781 158.941406 179.109375 161.617188 175.289062 L 167.367188 110.714844 C 167.367188 110.714844 170.792969 134.558594 175.835938 174.902344 C 176.753906 177.273438 179.914062 178.792969 182.546875 178.695312 C 185.175781 178.59375 187.632812 176.945312 188.796875 174.496094 C 188.796875 174.496094 188.128906 144.480469 186.46875 94.46875 C 179.789062 95.308594 170.359375 95.042969 163.164062 94.535156 L 163.675781 99.398438 L 152.441406 108.40625 C 151.484375 123.113281 156.542969 157.035156 157.089844 160.070312 L 150.328125 160.226562 L 151.75 175.984375 Z M 120.121094 92.777344 C 111.441406 103.089844 99.953125 110.003906 91.535156 97.152344 C 107.210938 83.949219 120.148438 80.28125 125.378906 80.136719 C 128.050781 80.371094 130.378906 82.058594 131.433594 84.523438 C 133.035156 88.277344 131.222656 92.59375 127.503906 94.117188 L 127.503906 176.800781 C 127.503906 178.140625 126.359375 179.230469 124.949219 179.230469 C 123.539062 179.230469 122.398438 178.140625 122.398438 176.800781 L 122.398438 94.289062 C 120.878906 93.761719 120.121094 92.777344 120.121094 92.777344 Z M 133.597656 96.183594 C 137.003906 92.757812 138.117188 87.660156 136.480469 83.136719 C 142.359375 85.644531 149.816406 89.996094 158.3125 97.152344 C 150.863281 108.523438 141.636719 104.421875 133.597656 96.183594 Z M 124.003906 34.15625 C 130.960938 34.15625 136.601562 39.796875 136.601562 46.753906 C 136.601562 53.710938 130.960938 59.351562 124.003906 59.351562 C 117.046875 59.351562 111.40625 53.710938 111.40625 46.753906 C 111.40625 39.796875 117.046875 34.15625 124.003906 34.15625 Z M 97.476562 156.496094 L 118.992188 156.496094 L 118.992188 101.503906 C 114.347656 105.765625 108.671875 109.277344 102.539062 109.34375 C 101.808594 126.113281 100.054688 142.722656 97.476562 156.496094 Z M 130.910156 100.738281 C 135.347656 105.066406 141.03125 109.097656 147.363281 109.257812 C 148.027344 126.46875 149.699219 142.214844 152.371094 156.496094 L 130.910156 156.496094 Z M 130.707031 76.417969 L 130.707031 76.421875 C 137.925781 78.507812 149.667969 84.691406 157.40625 90.0625 C 154.46875 71.257812 148.25 62.097656 138.746094 62.589844 C 128.515625 62.039062 119.300781 62.039062 111.101562 62.589844 C 101.65625 62.101562 95.457031 71.140625 92.496094 89.707031 C 98.003906 85.503906 103.980469 81.765625 110.269531 78.988281 C 114.660156 77.046875 120.382812 75.066406 125.234375 74.933594 C 126.980469 74.882812 129.238281 75.621094 130.707031 76.417969 Z M 124.003906 23.945312 C 130.597656 23.945312 130.355469 28.839844 130.597656 32.261719 C 126.402344 30.445312 121.605469 30.445312 117.410156 32.261719 C 117.652344 28.839844 117.410156 23.945312 124.003906 23.945312 Z M 117.359375 161.726562 L 104.992188 161.726562 L 103.785156 175.132812 C 104.589844 177.339844 106.613281 178.867188 108.957031 179.042969 C 111.296875 179.214844 113.523438 177.996094 114.644531 175.933594 Z M 132.953125 161.726562 L 135.703125 176.105469 C 136.820312 178.167969 139.046875 179.386719 141.390625 179.210938 C 143.730469 179.039062 145.753906 177.511719 146.558594 175.304688 L 145.335938 161.726562 Z M 193.035156 64.003906 C 192.359375 61.117188 191.148438 58.113281 189.023438 54.121094 C 186.269531 48.9375 183.550781 44.855469 179.046875 43.128906 C 173.925781 41.167969 160.570312 41.859375 155.042969 43.03125 C 140.472656 46.113281 139.691406 52.195312 138.070312 57.441406 L 138.769531 57.476562 C 144.828125 57.25 149.316406 59.550781 152.699219 63.335938 C 153.125 63.816406 153.570312 64.292969 153.929688 64.84375 C 155.773438 67.65625 155.644531 67.714844 155.773438 67.65625 C 160.496094 65.453125 167.558594 76.925781 168.242188 77.234375 C 171.488281 78.707031 175.6875 77.5 178.9375 76.539062 L 177.4375 63.25 L 184.453125 79.554688 C 177.929688 81.476562 171.277344 83.164062 166.027344 80.933594 C 159.117188 68.554688 159.4375 72.175781 157.324219 70.839844 C 160.117188 76.835938 161.667969 83.933594 162.585938 90.125 C 172.980469 90.949219 189.421875 91.355469 194.347656 88.320312 C 196.738281 86.847656 197.46875 84.769531 196.542969 82.082031 Z M 161.09375 13.757812 C 168.011719 13.757812 173.621094 19.367188 173.621094 26.285156 C 173.621094 33.203125 168.011719 38.8125 161.09375 38.8125 C 154.175781 38.8125 148.566406 33.203125 148.566406 26.285156 C 148.566406 19.367188 154.175781 13.757812 161.09375 13.757812 Z M 161.09375 13.757812 " fill-opacity="1" fill-rule="evenodd"/></g></svg>